# xmcd CD database file
#
# Track frame offsets:
#	150
#	37522
#	67791
#	101327
#	126113
#	155865
#	194544
#	229550
#	268726
#	293600
#
# Disc length: 4144 seconds
#
# Revision: 2
# Processed by: cddbd v1.5.2PL0 Copyright (c) Steve Scherf et al.
# Submitted via: CDex 1.70beta3
#
DISCID=7e102e0a
DTITLE=矢野沙織 - Little Tiny
DYEAR=2007
DGENRE=Jazz
TTITLE0=My Baby Shot Me Down
TTITLE1=Split Kick
TTITLE2=(They Long To Be) Close To You
TTITLE3=She Rote
TTITLE4=VelVet Easter
TTITLE5=Boplicity
TTITLE6=Pardon Lucy
TTITLE7=K.C. Blues
TTITLE8=Danny Boy
TTITLE9=Take The "A" Train
EXTD=YEAR: 2007
EXTT0=
EXTT1=
EXTT2=
EXTT3=
EXTT4=
EXTT5=
EXTT6=
EXTT7=
EXTT8=
EXTT9=
PLAYORDER=
